HIERARCHY
ROOT joint_Root
{
  OFFSET 0.0 0.0 0.0
  CHANNELS 6 Xposition Yposition Zposition Zrotation Xrotation Yrotation
  JOINT Hips
  {
    OFFSET 0.0 0.0 0.0
    CHANNELS 6 Xposition Yposition Zposition Zrotation Xrotation Yrotation
    JOINT Spine
    {
      OFFSET 15.735699654 0.0 0.0
      CHANNELS 6 Xposition Yposition Zposition Zrotation Xrotation Yrotation
      JOINT Chest
      {
        OFFSET 8.984550476 -0.406206995 0.0
        CHANNELS 6 Xposition Yposition Zposition Zrotation Xrotation Yrotation
        JOINT Neck
        {
          OFFSET 16.377300262 0.0 0.0
          CHANNELS 6 Xposition Yposition Zposition Zrotation Xrotation Yrotation
          JOINT Head
          {
            OFFSET 6.456719875 0.0 0.0
            CHANNELS 6 Xposition Yposition Zposition Zrotation Xrotation Yrotation
            End Site
            {
              OFFSET 0.0 0.0 0.0
            }
          }
        }
        JOINT Shoulder_L
        {
          OFFSET 12.994199753 -0.242715999 4.980390072
          CHANNELS 6 Xposition Yposition Zposition Zrotation Xrotation Yrotation
          JOINT UpperArm_L
          {
            OFFSET 5.348090172 0.0 0.0
            CHANNELS 6 Xposition Yposition Zposition Zrotation Xrotation Yrotation
            JOINT LowerArm_L
            {
              OFFSET 24.32859993 1.8701e-05 0.0
              CHANNELS 6 Xposition Yposition Zposition Zrotation Xrotation Yrotation
              JOINT Hand_L
              {
                OFFSET 22.291599274 0.0 0.0
                CHANNELS 6 Xposition Yposition Zposition Zrotation Xrotation Yrotation
                End Site
                {
                  OFFSET 0.0 0.0 0.0
                }
              }
            }
          }
        }
        JOINT Shoulder_R
        {
          OFFSET 12.99450016 -0.242715999 -4.980390072
          CHANNELS 6 Xposition Yposition Zposition Zrotation Xrotation Yrotation
          JOINT UpperArm_R
          {
            OFFSET -5.348130226 0.0 0.0
            CHANNELS 6 Xposition Yposition Zposition Zrotation Xrotation Yrotation
            JOINT LowerArm_R
            {
              OFFSET -24.328899384 0.000322201 0.0
              CHANNELS 6 Xposition Yposition Zposition Zrotation Xrotation Yrotation
              JOINT Hand_R
              {
                OFFSET -22.291500092 -0.000108084 0.0
                CHANNELS 6 Xposition Yposition Zposition Zrotation Xrotation Yrotation
                End Site
                {
                  OFFSET 0.0 0.0 0.0
                }
              }
            }
          }
        }
      }
    }
    JOINT UpperLeg_L
    {
      OFFSET -2.192480087 -6.469439983 0.0
      CHANNELS 6 Xposition Yposition Zposition Zrotation Xrotation Yrotation
      JOINT LowerLeg_L
      {
        OFFSET 39.081100464 0.0 -1.2379e-05
        CHANNELS 6 Xposition Yposition Zposition Zrotation Xrotation Yrotation
        JOINT Foot_L
        {
          OFFSET 40.985401154 0.0 -1.2687e-05
          CHANNELS 6 Xposition Yposition Zposition Zrotation Xrotation Yrotation
          JOINT Toes_L
          {
            OFFSET 11.754300117 0.0 0.0
            CHANNELS 6 Xposition Yposition Zposition Zrotation Xrotation Yrotation
            End Site
            {
              OFFSET 0.0 0.0 0.0
            }
          }
        }
      }
    }
    JOINT UpperLeg_R
    {
      OFFSET -2.19250989 6.469439983 0.0
      CHANNELS 6 Xposition Yposition Zposition Zrotation Xrotation Yrotation
      JOINT LowerLeg_R
      {
        OFFSET -39.081100464 -0.00228153 -0.040192802
        CHANNELS 6 Xposition Yposition Zposition Zrotation Xrotation Yrotation
        JOINT Foot_R
        {
          OFFSET -40.985401154 0.0 0.0
          CHANNELS 6 Xposition Yposition Zposition Zrotation Xrotation Yrotation
          JOINT Toes_R
          {
            OFFSET -11.754300117 0.0 0.0
            CHANNELS 6 Xposition Yposition Zposition Zrotation Xrotation Yrotation
            End Site
            {
              OFFSET 0.0 0.0 0.0
            }
          }
        }
      }
    }
  }
}
MOTION
Frames: 8
Frame Time: 0.0333333
0.0 0.0 0.0 -0.0 0.0 -0.0 0.0 0.0 0.0 91.087738037 -1.748037457 2.761455536 15.735699654 0.0 0.0 23.363018036 85.152282715 -22.694757462 8.984550476 -0.406206995 0.0 -1.055964708 -4.11462307 2.266738415 16.377300262 0.0 0.0 -0.753481388 -0.901747406 -0.390332103 6.456719875 0.0 0.0 5.489919662 -1.212879658 -0.062244948 12.994199753 -0.242715999 4.980390072 -92.830245972 7.560338974 -96.282653809 5.348090172 0.0 0.0 -50.365962982 13.569173813 -4.620923519 24.32859993 1.8701e-05 0.0 -10.918688774 6.451682568 -16.390371323 22.291599274 0.0 0.0 12.675438881 5.366638184 -3.373331785 12.99450016 -0.242715999 -4.980390072 95.088867188 12.662332535 -95.82636261 -5.348130226 0.0 0.0 -52.884849548 11.936592102 11.258089066 -24.328899384 0.000322201 0.0 -9.094444275 12.867702484 -12.639417648 -22.291500092 -0.000108084 0.0 9.414829254 5.999022961 -3.729066372 -2.192480087 -6.469439983 0.0 -168.677841187 -4.715722561 3.343246937 39.081100464 0.0 -1.2379e-05 -13.458189964 -0.391086459 43.958469391 40.985401154 0.0 -1.2687e-05 -3.001920938 8.391358376 -72.323570251 11.754300117 0.0 0.0 0.091221437 -0.545133531 -22.800445557 -2.19250989 6.469439983 0.0 178.410720825 9.44903183 163.811553955 -39.081100464 -0.00228153 -0.040192802 -10.01343441 -0.613344371 27.480360031 -40.985401154 0.0 0.0 -0.609959781 2.298592091 -50.835857391 -11.754300117 0.0 0.0 0.318243533 -0.508605063 -20.760641098 
0.0 0.0 0.0 -0.0 0.0 -0.0 0.0 0.0 0.0 91.448799133 -2.598126411 3.357812881 15.735699654 0.0 0.0 32.295459747 86.177764893 -31.792236328 8.984550476 -0.406206995 0.0 1.301383376 -2.827716589 1.518633127 16.377300262 0.0 0.0 -1.56079638 -0.630773246 -0.291102678 6.456719875 0.0 0.0 4.024207115 -1.066206932 -0.851554394 12.994199753 -0.242715999 4.980390072 -91.441619873 8.694003105 -97.210395813 5.348090172 0.0 0.0 -49.092224121 15.711600304 -4.40477562 24.32859993 1.8701e-05 0.0 -12.629671097 6.548717976 -13.029797554 22.291599274 0.0 0.0 13.122950554 5.115221977 -3.860590219 12.99450016 -0.242715999 -4.980390072 94.418243408 13.131067276 -97.998962402 -5.348130226 0.0 0.0 -48.87078476 13.355007172 5.910892963 -24.328899384 0.000322201 0.0 -10.489008904 13.305141449 -12.211426735 -22.291500092 -0.000108084 0.0 9.911014557 5.574007511 -3.52294898 -2.192480087 -6.469439983 0.0 -166.066955566 -4.399564266 -1.435566306 39.081100464 0.0 -1.2379e-05 -18.183595657 -0.292632639 44.74527359 40.985401154 0.0 -1.2687e-05 -5.470041752 11.029133797 -73.831703186 11.754300117 0.0 0.0 0.058371305 -0.437469125 -21.419837952 -2.19250989 6.469439983 0.0 174.274749756 9.669279099 167.676147461 -39.081100464 -0.00228153 -0.040192802 -13.596113205 -0.262012929 26.495429993 -40.985401154 0.0 0.0 -3.424314976 6.49518919 -50.505886078 -11.754300117 0.0 0.0 0.248496428 -0.42967847 -20.220279694 
0.0 0.0 0.0 -0.0 0.0 -0.0 0.0 0.0 0.0 91.132705688 -3.983054399 3.319142103 15.735699654 0.0 0.0 77.532394409 87.612632751 -77.357345581 8.984550476 -0.406206995 0.0 2.729126692 -0.356852829 0.182452902 16.377300262 0.0 0.0 -2.119121552 -0.330273211 -0.000831857 6.456719875 0.0 0.0 2.860809803 -0.70766294 -1.278521061 12.994199753 -0.242715999 4.980390072 -89.632614136 8.849551201 -97.469032288 5.348090172 0.0 0.0 -49.896183014 17.825040817 -2.983397484 24.32859993 1.8701e-05 0.0 -13.289551735 5.949242592 -12.317463875 22.291599274 0.0 0.0 14.078911781 5.082216263 -4.630929947 12.99450016 -0.242715999 -4.980390072 92.770675659 13.051475525 -99.395339966 -5.348130226 0.0 0.0 -46.924571991 12.849503517 1.874825478 -24.328899384 0.000322201 0.0 -10.24522686 14.295886993 -12.097450256 -22.291500092 -0.000108084 0.0 9.600613594 4.869819164 -2.612687111 -2.192480087 -6.469439983 0.0 -164.130905151 -4.994057655 -9.49132061 39.081100464 0.0 -1.2379e-05 -20.077417374 -0.990423322 46.138790131 40.985401154 0.0 -1.2687e-05 -7.739676952 11.783454895 -69.837409973 11.754300117 0.0 0.0 0.039407726 -0.446542442 -20.980995178 -2.19250989 6.469439983 0.0 170.888290405 9.817527771 173.230102539 -39.081100464 -0.00228153 -0.040192802 -16.637086868 0.434516668 23.255250931 -40.985401154 0.0 0.0 -5.394280434 9.983062744 -53.943271637 -11.754300117 0.0 0.0 0.156866372 -0.323081464 -19.441638947 
0.0 0.0 0.0 -0.0 0.0 -0.0 0.0 0.0 0.0 90.215995789 -4.231683731 2.92242384 15.735699654 0.0 0.0 122.921028137 86.488098145 -123.003295898 8.984550476 -0.406206995 0.0 3.497048616 2.438666105 -1.178198934 16.377300262 0.0 0.0 -2.002173901 -0.413225949 0.223436147 6.456719875 0.0 0.0 3.584790707 -1.992261171 -1.593302608 12.994199753 -0.242715999 4.980390072 -89.358451843 8.715127945 -97.677078247 5.348090172 0.0 0.0 -52.512901306 17.189052582 1.171175361 24.32859993 1.8701e-05 0.0 -13.072165489 5.828538418 -12.905365944 22.291599274 0.0 0.0 13.847149849 5.496765614 -5.244725227 12.99450016 -0.242715999 -4.980390072 92.488067627 11.670331955 -100.135734558 -5.348130226 0.0 0.0 -46.721099854 11.921673775 -2.17942071 -24.328899384 0.000322201 0.0 -9.810355186 13.646225929 -13.464735985 -22.291500092 -0.000108084 0.0 10.117180824 5.01905489 -2.373925686 -2.192480087 -6.469439983 0.0 -164.403335571 -5.557386398 -18.667982101 39.081100464 0.0 -1.2379e-05 -18.569095612 -1.05372417 46.394443512 40.985401154 0.0 -1.2687e-05 -8.888497353 9.411707878 -60.235198975 11.754300117 0.0 0.0 0.018219898 -0.441709071 -20.477420807 -2.19250989 6.469439983 0.0 169.075866699 9.12293911 -178.778167725 -39.081100464 -0.00228153 -0.040192802 -17.98935318 1.571255922 15.244128227 -40.985401154 0.0 0.0 -5.92471981 12.929000854 -60.558460236 -11.754300117 0.0 0.0 0.107786231 -0.37892282 -19.374908447 
0.0 0.0 0.0 -0.0 0.0 -0.0 0.0 0.0 0.0 89.45249176 -3.431581974 1.484914422 15.735699654 0.0 0.0 134.851882935 84.941581726 -135.039459229 8.984550476 -0.406206995 0.0 3.668510914 4.669438362 -1.594400167 16.377300262 0.0 0.0 -2.035041571 -0.52756536 0.422056288 6.456719875 0.0 0.0 2.698478937 -3.058584213 -0.94054383 12.994199753 -0.242715999 4.980390072 -89.041770935 8.407526016 -96.734382629 5.348090172 0.0 0.0 -56.271247864 13.62446022 5.571287632 24.32859993 1.8701e-05 0.0 -10.685052872 7.912633419 -15.293302536 22.291599274 0.0 0.0 12.89662838 5.912165642 -4.596704483 12.99450016 -0.242715999 -4.980390072 91.57698822 10.126720428 -100.160972595 -5.348130226 0.0 0.0 -46.954227448 10.12051487 -4.265879154 -24.328899384 0.000322201 0.0 -9.146813393 12.451086998 -17.509231567 -22.291500092 -0.000108084 0.0 11.001317978 5.233409882 -2.687480211 -2.192480087 -6.469439983 0.0 -167.643280029 -5.255367279 -26.893913269 39.081100464 0.0 -1.2379e-05 -14.760235786 -0.660156667 40.294075012 40.985401154 0.0 -1.2687e-05 -7.686042786 6.547280788 -49.278846741 11.754300117 0.0 0.0 0.034696806 -0.429840475 -20.232984543 -2.19250989 6.469439983 0.0 171.889297485 10.064053535 -174.301223755 -39.081100464 -0.00228153 -0.040192802 -15.835737228 1.99368763 11.100112915 -40.985401154 0.0 0.0 -3.865868807 10.291279793 -68.177757263 -11.754300117 0.0 0.0 0.020108372 -0.507544279 -19.131626129 
0.0 0.0 0.0 -0.0 0.0 -0.0 0.0 0.0 0.0 89.100669861 -4.311394691 1.512217283 15.735699654 0.0 0.0 141.437728882 83.785835266 -141.878692627 8.984550476 -0.406206995 0.0 2.723437548 6.425056458 -1.555856705 16.377300262 0.0 0.0 -2.128158808 -0.194457918 0.949411571 6.456719875 0.0 0.0 2.445976973 -3.711590052 -0.691108048 12.994199753 -0.242715999 4.980390072 -88.206474304 6.955873489 -95.773765564 5.348090172 0.0 0.0 -60.772285461 9.038906097 10.113349915 24.32859993 1.8701e-05 0.0 -7.067178726 10.595054626 -16.666313171 22.291599274 0.0 0.0 10.961571693 6.162059784 -2.259917974 12.99450016 -0.242715999 -4.980390072 90.520645142 7.783483982 -100.103469849 -5.348130226 0.0 0.0 -50.104728699 8.314188957 -4.556777954 -24.328899384 0.000322201 0.0 -7.087499619 12.602478981 -20.659049988 -22.291500092 -0.000108084 0.0 11.712018967 5.489376545 -2.541781187 -2.192480087 -6.469439983 0.0 -172.217910767 -5.879721165 -32.048820496 39.081100464 0.0 -1.2379e-05 -9.697886467 -0.222702295 37.053630829 40.985401154 0.0 -1.2687e-05 -4.306616783 2.968198538 -42.583515167 11.754300117 0.0 0.0 0.106934413 -0.448241681 -20.444507599 -2.19250989 6.469439983 0.0 176.805496216 10.394860268 -172.482666016 -39.081100464 -0.00228153 -0.040192802 -11.749238968 1.706388593 10.85943222 -40.985401154 0.0 0.0 -0.716503084 4.07327652 -73.245429993 -11.754300117 0.0 0.0 0.027183481 -0.708039165 -19.585811615 
0.0 0.0 0.0 -0.0 0.0 -0.0 0.0 0.0 0.0 89.104606628 -4.975012302 1.52382338 15.735699654 0.0 0.0 140.534118652 82.899330139 -141.480224609 8.984550476 -0.406206995 0.0 1.384028673 7.188234806 -1.151526809 16.377300262 0.0 0.0 -2.178212404 -0.069603704 1.673489928 6.456719875 0.0 0.0 2.85886693 -3.862106562 -0.341103554 12.994199753 -0.242715999 4.980390072 -87.628082275 5.51215601 -94.774330139 5.348090172 0.0 0.0 -64.230895996 4.65320158 15.043884277 24.32859993 1.8701e-05 0.0 -4.37810421 11.500540733 -16.707645416 22.291599274 0.0 0.0 10.775982857 7.008365631 -1.536836982 12.99450016 -0.242715999 -4.980390072 89.43082428 6.220261097 -99.949043274 -5.348130226 0.0 0.0 -53.511043549 7.743192673 -4.308155537 -24.328899384 0.000322201 0.0 -4.150626183 12.899754524 -25.169202805 -22.291500092 -0.000108084 0.0 13.071647644 5.985117435 -3.636646748 -2.192480087 -6.469439983 0.0 -176.001922607 -5.919433594 -34.083221436 39.081100464 0.0 -1.2379e-05 -6.183741093 -0.026449377 29.556304932 40.985401154 0.0 -1.2687e-05 -1.370799661 0.304960638 -39.15215683 11.754300117 0.0 0.0 0.129149944 -0.462246865 -20.395933151 -2.19250989 6.469439983 0.0 179.557067871 9.774971962 -172.017547607 -39.081100464 -0.00228153 -0.040192802 -8.582279205 1.072067738 12.779121399 -40.985401154 0.0 0.0 1.970780849 -0.187720507 -74.010910034 -11.754300117 0.0 0.0 0.103899129 -0.759065807 -20.558961868 
0.0 0.0 0.0 -0.0 0.0 -0.0 0.0 0.0 0.0 89.838241577 -4.480351925 2.538191557 15.735699654 0.0 0.0 139.611602783 82.290420532 -141.231903076 8.984550476 -0.406206995 0.0 -0.115583383 7.53765583 -0.562266409 16.377300262 0.0 0.0 -2.128117323 -0.160771817 2.230702639 6.456719875 0.0 0.0 3.735923529 -3.988249063 -0.218145669 12.994199753 -0.242715999 4.980390072 -86.724769592 5.202418327 -93.33972168 5.348090172 0.0 0.0 -64.623786926 1.998436093 19.11132431 24.32859993 1.8701e-05 0.0 -2.659092903 11.167513847 -17.112949371 22.291599274 0.0 0.0 12.825559616 7.723638535 -2.992358208 12.99450016 -0.242715999 -4.980390072 88.045295715 6.102243423 -99.851600647 -5.348130226 0.0 0.0 -54.546237946 6.853030205 -3.90748477 -24.328899384 0.000322201 0.0 -1.898170233 11.671514511 -27.719894409 -22.291500092 -0.000108084 0.0 14.688542366 6.42209959 -6.164989948 -2.192480087 -6.469439983 0.0 -178.460220337 -4.595684528 -34.395385742 39.081100464 0.0 -1.2379e-05 -4.638415337 -0.178812191 25.390090942 40.985401154 0.0 -1.2687e-05 0.418186128 -0.899477661 -40.263233185 11.754300117 0.0 0.0 0.142675042 -0.492494255 -20.815805435 -2.19250989 6.469439983 0.0 -179.86932373 9.552526474 -171.364227295 -39.081100464 -0.00228153 -0.040192802 -6.092711926 0.187902629 16.619333267 -40.985401154 0.0 0.0 3.446558952 -1.624898076 -73.124214172 -11.754300117 0.0 0.0 0.227544874 -0.798871934 -21.856878281 
